REM DIRINDEX 1\2,1\3,1\4,1\5,1\6
REM DIRNAME folder01,folder02,folder03,folder04,folder05,folder06
TITLE ""
FILE "DISC2Track02.mp3" MP3
  TRACK 01 AUDIO
    TITLE "0:"
    INDEX 01 00:00:00
  TRACK 02 AUDIO
    TITLE "3:cjc129_0961"
    INDEX 01 00:00:07
  TRACK 03 AUDIO
    TITLE "0:"
    INDEX 01 00:03:00
  TRACK 04 AUDIO
    TITLE "5:cjc129_0962"
    INDEX 01 00:03:31
  TRACK 05 AUDIO
    TITLE "0:"
    INDEX 01 00:07:35
  TRACK 06 AUDIO
    TITLE "4:cjc129_0963"
    INDEX 01 00:08:26
  TRACK 07 AUDIO
    TITLE "0:"
    INDEX 01 00:11:17
  TRACK 08 AUDIO
    TITLE "6:cjc129_0964"
    INDEX 01 00:11:50
  TRACK 09 AUDIO
    TITLE "0:"
    INDEX 01 00:16:16
  TRACK 10 AUDIO
    TITLE "3:cjc129_0965"
    INDEX 01 00:17:67
  TRACK 11 AUDIO
    TITLE "0:"
    INDEX 01 00:19:26
  TRACK 12 AUDIO
    TITLE "5:cjc129_0966"
    INDEX 01 00:19:58
  TRACK 13 AUDIO
    TITLE "0:"
    INDEX 01 00:22:25
  TRACK 14 AUDIO
    TITLE "4:cjc129_0967"
    INDEX 01 00:23:16
  TRACK 15 AUDIO
    TITLE "0:"
    INDEX 01 00:24:49
  TRACK 16 AUDIO
    TITLE "6:cjc129_0968"
    INDEX 01 00:25:05
  TRACK 17 AUDIO
    TITLE "0:"
    INDEX 01 00:29:29
  TRACK 18 AUDIO
    TITLE "3:cjc129_0969"
    INDEX 01 00:31:06
  TRACK 19 AUDIO
    TITLE "0:"
    INDEX 01 00:32:13
  TRACK 20 AUDIO
    TITLE "5:cjc129_0970"
    INDEX 01 00:32:45
  TRACK 21 AUDIO
    TITLE "0:"
    INDEX 01 00:34:73
  TRACK 22 AUDIO
    TITLE "4:cjc129_0971"
    INDEX 01 00:35:63
  TRACK 23 AUDIO
    TITLE "0:"
    INDEX 01 00:36:70
  TRACK 24 AUDIO
    TITLE "6:cjc129_0972"
    INDEX 01 00:37:26
  TRACK 25 AUDIO
    TITLE "0:"
    INDEX 01 00:42:72
  TRACK 26 AUDIO
    TITLE "3:cjc129_0973"
    INDEX 01 00:44:52
  TRACK 27 AUDIO
    TITLE "0:"
    INDEX 01 00:45:65
  TRACK 28 AUDIO
    TITLE "5:cjc129_0974"
    INDEX 01 00:46:21
  TRACK 29 AUDIO
    TITLE "0:"
    INDEX 01 00:50:23
  TRACK 30 AUDIO
    TITLE "4:cjc129_0975"
    INDEX 01 00:51:13
  TRACK 31 AUDIO
    TITLE "0:"
    INDEX 01 00:52:24
  TRACK 32 AUDIO
    TITLE "6:cjc129_0976"
    INDEX 01 00:52:55
  TRACK 33 AUDIO
    TITLE "0:"
    INDEX 01 00:56:57
  TRACK 34 AUDIO
    TITLE "3:cjc129_0977"
    INDEX 01 00:58:36
  TRACK 35 AUDIO
    TITLE "0:"
    INDEX 01 01:00:12
  TRACK 36 AUDIO
    TITLE "5:cjc129_0978"
    INDEX 01 01:00:43
  TRACK 37 AUDIO
    TITLE "0:"
    INDEX 01 01:03:35
  TRACK 38 AUDIO
    TITLE "4:cjc129_0979"
    INDEX 01 01:04:27
  TRACK 39 AUDIO
    TITLE "0:"
    INDEX 01 01:05:73
  TRACK 40 AUDIO
    TITLE "6:cjc129_0980"
    INDEX 01 01:06:34
  TRACK 41 AUDIO
    TITLE "0:"
    INDEX 01 01:10:43
  TRACK 42 AUDIO
    TITLE "3:cjc129_0981"
    INDEX 01 01:12:17
  TRACK 43 AUDIO
    TITLE "0:"
    INDEX 01 01:13:63
  TRACK 44 AUDIO
    TITLE "5:cjc129_0982"
    INDEX 01 01:14:19
  TRACK 45 AUDIO
    TITLE "0:"
    INDEX 01 01:17:12
  TRACK 46 AUDIO
    TITLE "4:cjc129_0983"
    INDEX 01 01:18:02
  TRACK 47 AUDIO
    TITLE "0:"
    INDEX 01 01:19:50
  TRACK 48 AUDIO
    TITLE "6:cjc129_0984"
    INDEX 01 01:20:06
  TRACK 49 AUDIO
    TITLE "0:"
    INDEX 01 01:24:24
  TRACK 50 AUDIO
    TITLE "3:cjc129_0985"
    INDEX 01 01:25:74
  TRACK 51 AUDIO
    TITLE "0:"
    INDEX 01 01:27:63
  TRACK 52 AUDIO
    TITLE "5:cjc129_0986"
    INDEX 01 01:28:22
  TRACK 53 AUDIO
    TITLE "0:"
    INDEX 01 01:30:46
  TRACK 54 AUDIO
    TITLE "4:cjc129_0987"
    INDEX 01 01:31:38
  TRACK 55 AUDIO
    TITLE "0:"
    INDEX 01 01:33:25
  TRACK 56 AUDIO
    TITLE "6:cjc129_0988"
    INDEX 01 01:33:58
  TRACK 57 AUDIO
    TITLE "0:"
    INDEX 01 01:39:17
  TRACK 58 AUDIO
    TITLE "3:cjc129_0989"
    INDEX 01 01:40:66
  TRACK 59 AUDIO
    TITLE "0:"
    INDEX 01 01:42:53
  TRACK 60 AUDIO
    TITLE "5:cjc129_0990"
    INDEX 01 01:43:05
  TRACK 61 AUDIO
    TITLE "0:"
    INDEX 01 01:44:56
  TRACK 62 AUDIO
    TITLE "4:cjc129_0991"
    INDEX 01 01:45:44
  TRACK 63 AUDIO
    TITLE "0:"
    INDEX 01 01:47:27
  TRACK 64 AUDIO
    TITLE "6:cjc129_0992"
    INDEX 01 01:47:60
  TRACK 65 AUDIO
    TITLE "0:"
    INDEX 01 01:53:23
